<?xml version="1.0" encoding="utf-8"?>
<!-- Flit. 워드마크 — 다크 텍스트, 투명 배경 (Sora 480 글리프 경로 기반) -->
<svg xmlns="http://www.w3.org/2000/svg" viewBox="0 -10 1880 760" width="940" height="380">
  <g transform="translate(0, 740) scale(1, -1)" fill="#111111">
    <!-- F (x=0) -->
    <path d="M106 0V730H204V0ZM184 325V413L497 414V326ZM184 642V730H514V642Z"/>
    <!-- l (x=583) -->
    <path d="M98 0V730H194V0ZM24 654V730H194V654Z" transform="translate(583, 0)"/>
    <!-- i (x=892) -->
    <path d="M118 0V534H214V0ZM36 458V534H214V458ZM145 620Q113 620 97.5 637.0Q82 654 82 680Q82 706 97.5 723.0Q113 740 145 740Q177 740 192.5 723.0Q208 706 208 680Q208 654 192.5 637.0Q177 620 145 620Z" transform="translate(892, 0)"/>
    <!-- t (x=1223) -->
    <path d="M300 -6Q240 -6 196.5 11.0Q153 28 129.5 69.5Q106 111 106 182V696H198V170Q198 127 221.5 103.5Q245 80 288 80H382V-6ZM14 462V534H382V462Z" transform="translate(1223, 0)"/>
    <!-- 채움 도트 (마침표 위치 기준: center Y=61, 반지름 85) -->
    <circle cx="1734" cy="61" r="85"/>
  </g>
</svg>
